<svg width="16" height="16" viewBox="0 0 16 16" fill="none" xmlns="http://www.w3.org/2000/svg">
<rect x="0.5" y="0.5" width="15" height="15" stroke="black"/>
<path d="M13.4891 2.51299C13.3266 2.35047 13.1337 2.22155 12.9214 2.13359C12.7091 2.04564 12.4815 2.00037 12.2516 2.00037C12.0218 2.00037 11.7942 2.04564 11.5819 2.13359C11.3696 2.22155 11.1766 2.35047 11.0141 2.51299L6.75115 6.77399C6.49585 7.02932 6.29333 7.33242 6.15515 7.66599L5.30715 9.71299C5.25034 9.85005 5.23547 10.0009 5.2644 10.1464C5.29333 10.2919 5.36476 10.4256 5.46967 10.5305C5.57458 10.6354 5.70824 10.7068 5.85375 10.7357C5.99927 10.7647 6.15009 10.7498 6.28715 10.693L8.33415 9.84499C8.66772 9.70681 8.97082 9.50429 9.22615 9.24899L13.4871 4.98699C13.8151 4.65884 13.9993 4.21391 13.9993 3.74999C13.9993 3.28608 13.8151 2.84115 13.4871 2.51299H13.4891Z" fill="#2E293D"/>
<path d="M4.75 3.5C4.06 3.5 3.5 4.06 3.5 4.75V11.25C3.5 11.94 4.06 12.5 4.75 12.5H11.25C11.94 12.5 12.5 11.94 12.5 11.25V9C12.5 8.80109 12.579 8.61032 12.7197 8.46967C12.8603 8.32902 13.0511 8.25 13.25 8.25C13.4489 8.25 13.6397 8.32902 13.7803 8.46967C13.921 8.61032 14 8.80109 14 9V11.25C14 11.9793 13.7103 12.6788 13.1945 13.1945C12.6788 13.7103 11.9793 14 11.25 14H4.75C4.02065 14 3.32118 13.7103 2.80546 13.1945C2.28973 12.6788 2 11.9793 2 11.25V4.75C2 4.02065 2.28973 3.32118 2.80546 2.80546C3.32118 2.28973 4.02065 2 4.75 2H7C7.19891 2 7.38968 2.07902 7.53033 2.21967C7.67098 2.36032 7.75 2.55109 7.75 2.75C7.75 2.94891 7.67098 3.13968 7.53033 3.28033C7.38968 3.42098 7.19891 3.5 7 3.5H4.75Z" fill="#2E293D"/>
</svg>
