<svg width="16" height="16" viewBox="0 0 16 16" fill="none" xmlns="http://www.w3.org/2000/svg">
<path fill-rule="evenodd" clip-rule="evenodd" d="M5 3.25V4H2.75C2.55109 4 2.36032 4.07902 2.21967 4.21967C2.07902 4.36032 2 4.55109 2 4.75C2 4.94891 2.07902 5.13968 2.21967 5.28033C2.36032 5.42098 2.55109 5.5 2.75 5.5H3.05L3.865 13.65C3.90218 14.0199 4.0754 14.3628 4.35107 14.6123C4.62675 14.8617 4.98523 14.9999 5.357 15H10.642C11.0139 15.0001 11.3727 14.8621 11.6486 14.6126C11.9244 14.3631 12.0978 14.0201 12.135 13.65L12.95 5.5H13.25C13.4489 5.5 13.6397 5.42098 13.7803 5.28033C13.921 5.13968 14 4.94891 14 4.75C14 4.55109 13.921 4.36032 13.7803 4.21967C13.6397 4.07902 13.4489 4 13.25 4H11V3.25C11 2.65326 10.7629 2.08097 10.341 1.65901C9.91903 1.23705 9.34674 1 8.75 1H7.25C6.65326 1 6.08097 1.23705 5.65901 1.65901C5.23705 2.08097 5 2.65326 5 3.25ZM7.25 2.5C7.05109 2.5 6.86032 2.57902 6.71967 2.71967C6.57902 2.86032 6.5 3.05109 6.5 3.25V4H9.5V3.25C9.5 3.05109 9.42098 2.86032 9.28033 2.71967C9.13968 2.57902 8.94891 2.5 8.75 2.5H7.25ZM6.05 6C6.14852 5.99502 6.24705 6.00952 6.33996 6.04268C6.43286 6.07584 6.51832 6.127 6.59142 6.19323C6.66453 6.25946 6.72385 6.33946 6.76599 6.42865C6.80813 6.51784 6.83226 6.61447 6.837 6.713L7.112 12.213C7.11933 12.4101 7.04872 12.6022 6.91546 12.7476C6.7822 12.893 6.59702 12.9801 6.40002 12.9899C6.20302 12.9998 6.01007 12.9317 5.86295 12.8003C5.71583 12.6689 5.62639 12.4849 5.614 12.288L5.339 6.788C5.33388 6.68956 5.34821 6.59107 5.38118 6.49818C5.41416 6.40528 5.46511 6.3198 5.53115 6.24661C5.59718 6.17343 5.677 6.11397 5.76603 6.07166C5.85506 6.02934 5.95155 6.00499 6.05 6ZM9.95 6C10.0484 6.00487 10.145 6.02909 10.234 6.07129C10.3231 6.11349 10.403 6.17283 10.4691 6.24592C10.5353 6.31901 10.5863 6.40442 10.6194 6.49726C10.6525 6.59011 10.667 6.68856 10.662 6.787L10.387 12.287C10.3746 12.4839 10.2852 12.6679 10.138 12.7993C9.99093 12.9307 9.79798 12.9988 9.60098 12.9889C9.40398 12.9791 9.2188 12.892 9.08554 12.7466C8.95228 12.6012 8.88167 12.4091 8.889 12.212L9.164 6.712C9.17409 6.51354 9.26253 6.32719 9.4099 6.19389C9.55727 6.06058 9.75152 5.99021 9.95 6Z" fill="white"/>
</svg>
