<svg width="162" height="34" viewBox="0 0 162 34" fill="none" xmlns="http://www.w3.org/2000/svg">
<path d="M115.414 4.22852H130.114C130.634 4.22852 133.194 5.5501 133.675 6.0134C136.004 8.24674 136.033 13.7558 133.239 15.6625C138.02 17.584 138.184 25.4719 133.791 27.8033C131.083 29.2407 122.066 29.208 118.814 28.8932C117.154 28.7328 115.414 27.6281 115.414 25.76V4.22852ZM128.629 8.38632C126.304 7.97945 122.915 8.68628 120.462 8.38632V14.326H128.629C130.521 14.326 131.35 8.8615 128.629 8.38632ZM120.462 24.7206H129.52C129.684 24.7206 131.097 24.0316 131.311 23.8385C132.719 22.5763 132.012 18.4839 130.411 18.4839H120.462V24.7206Z" fill="white"/>
<path d="M81.4086 4.22852C87.6631 5.19966 88.8688 16.0961 82.745 17.8928V18.3294C85.5753 20.9191 86.0118 25.3769 87.1998 28.8754H82.151C81.6105 27.0311 80.1464 19.9658 77.8447 19.9658H71.1625V28.8754H66.1138V4.22852H81.4086ZM71.1625 15.811H79.3296C82.3738 15.811 82.1807 8.38632 80.2206 8.38632H71.1625V15.811Z" fill="white"/>
<path d="M96.6315 4.0089C103.171 3.06746 111.166 4.06236 111.858 12.0869C112.508 19.5977 112.565 28.4152 103.097 29.1844C95.984 29.7635 89.8305 28.2816 89.2632 20.1293C88.8326 13.949 88.7286 5.14339 96.6315 4.0089ZM97.8105 8.1578C93.5725 8.92996 93.7893 15.3478 94.015 18.6473C94.1546 20.6817 94.7872 24.1089 97.2106 24.6583C98.1847 24.8781 103.213 24.8573 104.139 24.5841C105.752 24.1089 106.866 21.9528 107.071 20.3877C107.335 18.3682 107.299 12.6363 106.56 10.8515C105.229 7.64401 100.771 7.61728 97.8105 8.1578Z" fill="white"/>
<path d="M146.525 4.0089C153.065 3.06746 161.06 4.06236 161.752 12.0869C162.402 19.5977 162.459 28.4152 152.991 29.1844C145.878 29.7635 139.725 28.2816 139.157 20.1293C138.727 13.949 138.623 5.14339 146.525 4.0089ZM147.705 8.1578C143.467 8.92996 143.683 15.3478 143.909 18.6473C144.049 20.6817 144.681 24.1089 147.105 24.6583C148.079 24.8781 153.107 24.8573 154.033 24.5841C155.646 24.1089 156.76 21.9528 156.965 20.3877C157.229 18.3682 157.193 12.6363 156.454 10.8515C155.123 7.64401 150.665 7.61728 147.705 8.1578Z" fill="white"/>
<path d="M47.9975 21.1567V28.8784H42.9487V4.22852H58.2435C58.4692 4.22852 60.7115 5.33924 61.0441 5.58574C64.3644 8.02697 64.3406 16.3485 61.5074 19.0778C60.6996 19.8589 57.8099 21.1597 56.7586 21.1597H47.9975V21.1567ZM47.9975 16.7019H56.7586C58.8583 16.7019 58.9355 11.6621 58.493 10.2158C58.3564 9.77325 57.314 8.38632 57.0556 8.38632H47.9975V16.7019Z" fill="white"/>
<path d="M12.9575 0.00576464C14.3028 -0.10115 15.1908 1.30062 14.38 2.42323C13.9583 3.00532 12.4259 3.18352 11.6864 3.49238C4.60326 6.46224 0.974092 14.2195 3.96771 21.5076C9.72627 35.5253 31.0558 31.3527 30.3252 14.9382C30.2807 13.9166 29.5382 12.696 30.8331 12.004C32.7189 10.9943 33.1822 13.4503 33.2773 14.766C34.2959 28.6026 19.3724 37.8774 7.60876 30.2954C-2.27197 23.928 -2.54816 9.71424 6.89006 2.78259C8.22055 1.8055 11.3538 0.130499 12.9575 0.00576464Z" fill="white"/>
<path d="M15.0843 4.10726C27.6111 2.61342 33.9726 18.6685 24.1008 26.0456C13.9438 33.6336 0.442845 23.0104 5.44112 11.3092C5.7886 10.4984 6.83696 8.2324 7.9269 8.54127C9.789 9.06693 7.98629 10.9439 7.56754 11.7992C3.04444 21.086 13.7656 30.447 22.3664 24.6349C30.2127 19.3337 26.8271 6.89002 17.4869 6.18617C16.5454 6.11489 14.2854 6.53364 13.7181 6.19211C13.2222 5.89512 13.1895 5.09029 13.4954 4.64184C13.7211 4.30921 14.6655 4.15181 15.0813 4.10132L15.0843 4.10726Z" fill="white"/>
<path d="M15.8975 10.9735C23.0252 10.0439 24.1003 20.6879 17.6409 21.5462C10.0588 22.553 9.21239 11.8436 15.8975 10.9735Z" fill="white"/>
<path d="M21.9301 21.5019C23.2339 20.1625 23.9674 18.238 24.104 16.3819C24.1337 15.9691 23.6972 14.8999 24.3862 14.7069C25.7048 14.3386 25.194 17.4777 25.0485 18.1608C23.7031 24.5104 15.7973 27.011 10.9416 22.7077C6.04729 18.3717 7.71041 10.1659 13.8847 8.1405C14.3867 7.97419 16.2072 7.40992 16.2725 8.23257C16.3408 9.08492 14.6718 9.11462 13.9738 9.37596C9.81307 10.9381 8.04897 15.9691 10.1843 19.8685C12.5156 24.1273 18.5118 25.0093 21.9301 21.5019Z" fill="white"/>
<path d="M22.9268 0.989833C23.7465 0.924496 26.9896 2.94103 27.3935 3.64489C28.1062 4.88926 26.948 6.31479 25.5789 5.78616C24.6434 4.82095 21.7002 3.99533 21.525 2.6292C21.4181 1.80654 22.116 1.05517 22.9268 0.989833Z" fill="white"/>
<path d="M29.9454 7.54413C31.8669 7.46097 33.1201 11.8772 30.0939 11.4109C28.6416 11.1881 27.6526 7.64213 29.9454 7.54413Z" fill="white"/>
</svg>
