<svg width="32" height="40" viewBox="0 0 32 40" fill="none" xmlns="http://www.w3.org/2000/svg">
<path d="M20 0H4C2.93913 0 1.92172 0.421427 1.17157 1.17157C0.421427 1.92172 0 2.93913 0 4V36C0 37.0609 0.421427 38.0783 1.17157 38.8284C1.92172 39.5786 2.93913 40 4 40H28C29.0609 40 30.0783 39.5786 30.8284 38.8284C31.5786 38.0783 32 37.0609 32 36V12L20 0ZM10.996 28.38C10.378 28.96 9.466 29.22 8.404 29.22C8.19804 29.2239 7.9921 29.2118 7.788 29.184V32.036H6V24.164C6.80695 24.044 7.62225 23.9892 8.438 24C9.552 24 10.344 24.212 10.878 24.638C11.386 25.042 11.73 25.704 11.73 26.484C11.728 27.268 11.468 27.93 10.996 28.38ZM18.61 31.09C17.77 31.788 16.492 32.12 14.93 32.12C13.994 32.12 13.332 32.06 12.882 32V24.166C13.6892 24.0486 14.5043 23.9931 15.32 24C16.834 24 17.818 24.272 18.586 24.852C19.416 25.468 19.936 26.45 19.936 27.86C19.936 29.386 19.378 30.44 18.61 31.09ZM26 25.54H22.936V27.362H25.8V28.83H22.936V32.038H21.124V24.06H26V25.54ZM20 14H18V4L28 14H20Z" fill="#4F4B5C"/>
</svg>
