<svg width="138" height="136" viewBox="0 0 138 136" fill="none" xmlns="http://www.w3.org/2000/svg">
<path d="M53.3043 0.0236454C58.8388 -0.414898 62.4917 5.3349 59.1564 9.9396C57.4215 12.3272 51.1174 13.0581 48.0752 14.325C18.9368 26.5068 4.0072 58.3256 16.3223 88.2196C40.0118 145.718 127.757 128.602 124.751 61.2736C124.568 57.083 121.514 52.0763 126.841 49.238C134.599 45.0962 136.505 55.1705 136.896 60.567C141.086 117.322 79.6938 155.366 31.3008 124.266C-9.34638 98.1478 -10.4826 39.8458 28.3442 11.4136C33.8176 7.4058 46.7069 0.53528 53.3043 0.0236454Z" fill="white"/>
<path d="M62.063 16.8471C113.596 10.7196 139.765 76.5743 99.1549 106.834C57.3715 137.958 1.83138 94.384 22.3932 46.3879C23.8226 43.0622 28.1354 33.7675 32.6191 35.0344C40.2794 37.1906 32.8635 44.8895 31.1408 48.3978C12.5338 86.4902 56.6385 124.887 92.02 101.047C124.298 79.303 110.37 28.2614 71.9469 25.3743C68.074 25.0819 58.7765 26.7996 56.443 25.3987C54.4027 24.1805 54.2683 20.8792 55.5267 19.0398C56.4552 17.6754 60.3404 17.0298 62.0508 16.8227L62.063 16.8471Z" fill="white"/>
<path d="M65.3875 45.0114C94.7092 41.1985 99.1319 84.858 72.5591 88.3785C41.3681 92.5082 37.8862 48.5807 65.3875 45.0114Z" fill="white"/>
<path d="M90.2247 88.1956C95.5882 82.7016 98.6059 74.8078 99.1679 67.1942C99.29 65.5009 97.4941 61.1155 100.329 60.3237C105.753 58.8132 103.652 71.6893 103.053 74.4911C97.5185 100.536 64.9959 110.793 45.0205 93.1414C24.8862 75.356 31.728 41.6978 57.1279 33.3898C59.1926 32.7076 66.6819 30.3931 66.9506 33.7674C67.2316 37.2636 60.3655 37.3854 57.4944 38.4574C40.3779 44.865 33.1207 65.501 41.905 81.4956C51.4957 98.9643 76.1625 102.582 90.2247 88.1956Z" fill="white"/>
<path d="M94.3248 4.0601C97.6968 3.79211 111.038 12.0635 112.7 14.9506C115.632 20.0548 110.867 25.902 105.235 23.7337C101.386 19.7746 89.2791 16.3881 88.5582 10.7844C88.1184 7.41009 90.9895 4.3281 94.3248 4.0601Z" fill="white"/>
<path d="M123.196 30.9445C131.1 30.6035 136.256 48.7177 123.807 46.8052C117.832 45.8916 113.764 31.3465 123.196 30.9445Z" fill="white"/>
</svg>
