<svg width="283" height="61" viewBox="0 0 283 61" fill="none" xmlns="http://www.w3.org/2000/svg">
<path d="M171.753 1.20991H206.599C207.831 1.20991 213.899 4.33341 215.039 5.42839C220.558 10.7068 220.629 23.7272 214.004 28.2334C225.338 32.7748 225.725 51.4175 215.314 56.9275C208.894 60.3248 187.521 60.2476 179.813 59.5035C175.878 59.1245 171.753 56.5134 171.753 52.0984V1.20991ZM203.079 11.0366C197.567 10.075 189.535 11.7456 183.72 11.0366V25.0748H203.079C207.563 25.0748 209.527 12.1597 203.079 11.0366ZM183.72 49.6417H205.191C205.578 49.6417 208.929 48.0133 209.436 47.557C212.773 44.5739 211.097 34.9016 207.303 34.9016H183.72V49.6417Z" fill="white"/>
<path d="M91.1661 1.20991C105.992 3.50516 108.85 29.2582 94.3339 33.5048V34.5366C101.043 40.6572 102.077 51.1929 104.893 59.4614H92.926C91.6448 55.1026 88.1743 38.4041 82.7186 38.4041H66.8794V59.4614H54.9121V1.20991H91.1661ZM66.8794 28.5844H86.2384C93.454 28.5844 92.9964 11.0366 88.3503 11.0366H66.8794V28.5844Z" fill="white"/>
<path d="M127.243 0.690373C142.744 -1.53468 161.695 0.816716 163.335 19.7823C164.877 37.5336 165.011 58.3733 142.568 60.1913C125.708 61.56 111.122 58.0575 109.778 38.79C108.757 24.1833 108.511 3.37167 127.243 0.690373ZM130.038 10.4961C119.992 12.321 120.506 27.4893 121.041 35.2875C121.372 40.0956 122.871 48.1956 128.616 49.4942C130.925 50.0136 142.843 49.9644 145.039 49.3187C148.862 48.1956 151.502 43.0998 151.987 39.4007C152.614 34.6277 152.529 21.0809 150.776 16.8624C147.623 9.28175 137.056 9.21858 130.038 10.4961Z" fill="white"/>
<path d="M245.51 0.690373C261.012 -1.53468 279.962 0.816716 281.602 19.7823C283.144 37.5336 283.278 58.3733 260.836 60.1913C243.976 61.56 229.39 58.0575 228.045 38.79C227.024 24.1833 226.778 3.37167 245.51 0.690373ZM248.305 10.4961C238.26 12.321 238.773 27.4893 239.308 35.2875C239.639 40.0956 241.139 48.1956 246.883 49.4942C249.192 50.0136 261.11 49.9644 263.306 49.3187C267.129 48.1956 269.769 43.0998 270.255 39.4007C270.881 34.6277 270.797 21.0809 269.044 16.8624C265.89 9.28175 255.324 9.21858 248.305 10.4961Z" fill="white"/>
<path d="M11.9673 41.2188V59.4684H0V1.20991H36.254C36.789 1.20991 42.1039 3.83505 42.8923 4.41764C50.7626 10.1873 50.7063 29.8549 43.9905 36.3054C42.0757 38.1514 35.2262 41.2258 32.7342 41.2258H11.9673V41.2188ZM11.9673 30.6901H32.7342C37.7112 30.6901 37.8942 18.7787 36.8453 15.3604C36.5215 14.3146 34.0506 11.0366 33.4381 11.0366H11.9673V30.6901Z" fill="white"/>
</svg>
