<svg width="18" height="18" viewBox="0 0 18 18" fill="none" xmlns="http://www.w3.org/2000/svg">
<path d="M11.3865 12.2385C10.7572 11.6075 9.90318 11.252 9.012 11.25C8.56668 11.2478 8.12537 11.3341 7.71365 11.5038C7.30192 11.6735 6.92798 11.9232 6.6135 12.2385M15.75 9C15.75 9.88642 15.5754 10.7642 15.2362 11.5831C14.897 12.4021 14.3998 13.1462 13.773 13.773C13.1462 14.3998 12.4021 14.897 11.5831 15.2362C10.7642 15.5754 9.88642 15.75 9 15.75C8.11358 15.75 7.23583 15.5754 6.41689 15.2362C5.59794 14.897 4.85382 14.3998 4.22703 13.773C3.60023 13.1462 3.10303 12.4021 2.76381 11.5831C2.42459 10.7642 2.25 9.88642 2.25 9C2.25 7.20979 2.96116 5.4929 4.22703 4.22703C5.4929 2.96116 7.20979 2.25 9 2.25C10.7902 2.25 12.5071 2.96116 13.773 4.22703C15.0388 5.4929 15.75 7.20979 15.75 9ZM7.3125 7.3125C7.3125 7.623 7.1865 7.875 7.03125 7.875C6.876 7.875 6.75 7.623 6.75 7.3125C6.75 7.002 6.876 6.75 7.03125 6.75C7.1865 6.75 7.3125 7.002 7.3125 7.3125ZM7.03125 7.3125H7.03725V7.32375H7.03125V7.3125ZM11.25 7.3125C11.25 7.623 11.124 7.875 10.9688 7.875C10.8135 7.875 10.6875 7.623 10.6875 7.3125C10.6875 7.002 10.8135 6.75 10.9688 6.75C11.124 6.75 11.25 7.002 11.25 7.3125ZM10.9688 7.3125H10.9748V7.32375H10.9688V7.3125Z" stroke="#676472" stroke-width="1.5" stroke-linecap="round" stroke-linejoin="round"/>
</svg>
