<svg width="32" height="40" viewBox="0 0 32 40" fill="none" xmlns="http://www.w3.org/2000/svg">
<path d="M31.5727 10.0314C31.8455 10.2992 32 10.6609 32 11.0403V38.5716C32 39.3617 31.35 40.0001 30.5455 40.0001H1.45455C0.65 40.0001 0 39.3617 0 38.5716V1.42871C0 0.638532 0.65 0.000139645 1.45455 0.000139645H20.7591C21.1455 0.000139645 21.5182 0.151925 21.7909 0.419783L31.5727 10.0314ZM28.6455 11.6966L20.0909 3.29478V11.6966H28.6455ZM16 22.4153L18.4005 31.21C18.4315 31.324 18.5 31.4247 18.5954 31.4966C18.6907 31.5684 18.8076 31.6074 18.9277 31.6073H20.3718C20.4919 31.6074 20.6086 31.5686 20.704 31.4969C20.7993 31.4253 20.8679 31.3247 20.8991 31.2108L24.2795 18.8894C24.2918 18.844 24.2979 18.7972 24.2977 18.7501C24.2977 18.6081 24.2403 18.4718 24.138 18.3713C24.0357 18.2709 23.8969 18.2144 23.7523 18.2144H22.1355C22.012 18.2144 21.8922 18.2554 21.7956 18.3309C21.699 18.4064 21.6313 18.5119 21.6036 18.63L19.5227 27.5184L17.2609 18.6202C17.2314 18.5043 17.1633 18.4014 17.0675 18.3279C16.9716 18.2544 16.8535 18.2144 16.7318 18.2144H15.2682C15.1465 18.2145 15.0283 18.2545 14.9324 18.3281C14.8366 18.4017 14.7685 18.5047 14.7391 18.6207L12.4818 27.5006L10.3864 18.6296C10.3585 18.5118 10.2909 18.4066 10.1945 18.3313C10.0981 18.256 9.97863 18.215 9.85546 18.2149H8.24682C8.19908 18.2149 8.15156 18.221 8.10546 18.2332C7.96582 18.2701 7.84682 18.36 7.77463 18.483C7.70243 18.6061 7.68295 18.7523 7.72046 18.8894L11.0918 31.2108C11.123 31.3246 11.1914 31.425 11.2866 31.4967C11.3817 31.5683 11.4983 31.6072 11.6182 31.6073H13.0723C13.1924 31.6073 13.3091 31.5683 13.4044 31.4965C13.4996 31.4246 13.5681 31.3239 13.5991 31.21L16 22.4153Z" fill="#4F4B5C"/>
</svg>
